<?xml version="1.0" encoding="UTF-8" standalone="no"?> <!-- Created with Vectornator for iOS (http://vectornator.io/) --><!DOCTYPE svg PUBLIC "-//W3C//DTD SVG 1.1//EN" "http://www.w3.org/Graphics/SVG/1.1/DTD/svg11.dtd">
<svg style="fill-rule:evenodd;clip-rule:evenodd;stroke-linecap:round;stroke-linejoin:round;" xmlns:vectornator="http://vectornator.io" xmlns:xlink="http://www.w3.org/1999/xlink" xmlns="http://www.w3.org/2000/svg" xml:space="preserve" version="1.1" viewBox="0 0 1024 1024">
<metadata>
<vectornator:setting key="DisplayWhiteBackground" value="0"/>
<vectornator:setting key="RulersVisible" value="1"/>
<vectornator:setting key="SnapToEdges" value="0"/>
<vectornator:setting key="Units" value="Pixels"/>
<vectornator:setting key="DynamicGuides" value="1"/>
<vectornator:setting key="SnapToPoints" value="0"/>
<vectornator:setting key="SnapToGrid" value="0"/>
<vectornator:setting key="SnapToGuides" value="1"/>
<vectornator:setting key="ShowGrid" value="0"/>
<vectornator:setting key="GridSpacing" value="36"/>
</metadata>
<defs/>
<g id="背景" vectornator:layerName="背景">
<path stroke="#000000" stroke-opacity="0" stroke-width="1" d="M168.704-1.34998L855.296-1.34998C948.469-1.34998+1024+74.1815+1024+167.354L1024+853.946C1024+947.119+948.469+1022.65+855.296+1022.65L168.704+1022.65C75.5315+1022.65+3.09719e-05+947.119+3.09719e-05+853.946L3.09719e-05+167.354C3.09719e-05+74.1815+75.5315-1.34998+168.704-1.34998Z" fill="#0f3857" stroke-linecap="round" opacity="1" stroke-linejoin="round"/>
</g>
<g id="卡片" vectornator:layerName="卡片">
<path d="M214.594+822.094L228.594+870.031L252+950.312L273.5+1024L295+950.312L318.406+870.031L332.406+822.094L214.594+822.094Z" opacity="1" fill="#ffffff"/>
<path stroke="#ffffff" vectornator:shadowColor="#000000" vectornator:shadowOffset="10.181" stroke-width="38.17" fill="#004578" stroke-linecap="round" vectornator:shadowAngle="1.57732" stroke-linejoin="round" opacity="0.948108" vectornator:shadowRadius="50" d="M192.916+107L831.084+107C864.727+107+892+133.178+892+165.47L892+808.53C892+840.822+864.727+867+831.084+867L192.916+867C159.273+867+132+840.822+132+808.53L132+165.47C132+133.178+159.273+107+192.916+107Z" vectornator:shadowOpacity="1"/>
<path d="M262+433.698L285.002+433.698L285.002+867L262+867L262+433.698Z" opacity="0.499101" fill="#ffffff"/>
</g>
<g id="文字插图" vectornator:layerName="文字插图">
<g opacity="1">
<path d="M646.792+240.952C637.801+240.952+630.512+248.241+630.512+257.232L630.512+391.017C630.512+400.007+637.801+407.296+646.792+407.296L745.72+407.296C754.711+407.296+762+400.007+762+391.017L762+257.232C762+248.241+754.711+240.952+745.72+240.952L646.792+240.952ZM659.66+261.353L732.852+261.353C739.504+261.353+744.876+266.859+744.876+273.647L744.876+374.635C744.876+381.423+739.504+386.93+732.852+386.93L659.66+386.93C653.008+386.93+647.603+381.423+647.603+374.635L647.603+273.647C647.603+266.859+653.008+261.353+659.66+261.353Z" opacity="1" fill="#ffffff"/>
<path d="M646.792+240.952C637.801+240.952+630.512+248.241+630.512+257.232L630.512+391.017C630.512+400.007+637.801+407.296+646.792+407.296L745.72+407.296C754.711+407.296+762+400.007+762+391.017L762+257.232C762+248.241+754.711+240.952+745.72+240.952L646.792+240.952ZM659.66+261.353L732.852+261.353C739.504+261.353+744.876+266.859+744.876+273.647L744.876+374.635C744.876+381.423+739.504+386.93+732.852+386.93L659.66+386.93C653.008+386.93+647.603+381.423+647.603+374.635L647.603+273.647C647.603+266.859+653.008+261.353+659.66+261.353Z" opacity="1" fill="#ffffff"/>
<path d="M646.792+240.952C637.801+240.952+630.512+248.241+630.512+257.232L630.512+391.017C630.512+400.007+637.801+407.296+646.792+407.296L745.72+407.296C754.711+407.296+762+400.007+762+391.017L762+257.232C762+248.241+754.711+240.952+745.72+240.952L646.792+240.952ZM659.66+261.353L732.852+261.353C739.504+261.353+744.876+266.859+744.876+273.647L744.876+374.635C744.876+381.423+739.504+386.93+732.852+386.93L659.66+386.93C653.008+386.93+647.603+381.423+647.603+374.635L647.603+273.647C647.603+266.859+653.008+261.353+659.66+261.353Z" opacity="1" fill="#ffffff"/>
<path d="M646.792+240.952C637.801+240.952+630.512+248.241+630.512+257.232L630.512+391.017C630.512+400.007+637.801+407.296+646.792+407.296L745.72+407.296C754.711+407.296+762+400.007+762+391.017L762+257.232C762+248.241+754.711+240.952+745.72+240.952L646.792+240.952ZM659.66+261.353L732.852+261.353C739.504+261.353+744.876+266.859+744.876+273.647L744.876+374.635C744.876+381.423+739.504+386.93+732.852+386.93L659.66+386.93C653.008+386.93+647.603+381.423+647.603+374.635L647.603+273.647C647.603+266.859+653.008+261.353+659.66+261.353Z" opacity="1" fill="#ffffff"/>
<path d="M646.792+240.952C637.801+240.952+630.512+248.241+630.512+257.232L630.512+391.017C630.512+400.007+637.801+407.296+646.792+407.296L745.72+407.296C754.711+407.296+762+400.007+762+391.017L762+257.232C762+248.241+754.711+240.952+745.72+240.952L646.792+240.952ZM659.66+261.353L732.852+261.353C739.504+261.353+744.876+266.859+744.876+273.647L744.876+374.635C744.876+381.423+739.504+386.93+732.852+386.93L659.66+386.93C653.008+386.93+647.603+381.423+647.603+374.635L647.603+273.647C647.603+266.859+653.008+261.353+659.66+261.353Z" opacity="1" fill="#ffffff"/>
<path d="M646.792+240.952C637.801+240.952+630.512+248.241+630.512+257.232L630.512+391.017C630.512+400.007+637.801+407.296+646.792+407.296L745.72+407.296C754.711+407.296+762+400.007+762+391.017L762+257.232C762+248.241+754.711+240.952+745.72+240.952L646.792+240.952ZM659.66+261.353L732.852+261.353C739.504+261.353+744.876+266.859+744.876+273.647L744.876+374.635C744.876+381.423+739.504+386.93+732.852+386.93L659.66+386.93C653.008+386.93+647.603+381.423+647.603+374.635L647.603+273.647C647.603+266.859+653.008+261.353+659.66+261.353Z" opacity="1" fill="#ffffff"/>
<path d="M646.792+240.952C637.801+240.952+630.512+248.241+630.512+257.232L630.512+391.017C630.512+400.007+637.801+407.296+646.792+407.296L745.72+407.296C754.711+407.296+762+400.007+762+391.017L762+257.232C762+248.241+754.711+240.952+745.72+240.952L646.792+240.952ZM659.66+261.353L732.852+261.353C739.504+261.353+744.876+266.859+744.876+273.647L744.876+374.635C744.876+381.423+739.504+386.93+732.852+386.93L659.66+386.93C653.008+386.93+647.603+381.423+647.603+374.635L647.603+273.647C647.603+266.859+653.008+261.353+659.66+261.353Z" opacity="1" fill="#ffffff"/>
<path d="M646.792+240.952C637.801+240.952+630.512+248.241+630.512+257.232L630.512+391.017C630.512+400.007+637.801+407.296+646.792+407.296L745.72+407.296C754.711+407.296+762+400.007+762+391.017L762+257.232C762+248.241+754.711+240.952+745.72+240.952L646.792+240.952ZM659.66+261.353L732.852+261.353C739.504+261.353+744.876+266.859+744.876+273.647L744.876+374.635C744.876+381.423+739.504+386.93+732.852+386.93L659.66+386.93C653.008+386.93+647.603+381.423+647.603+374.635L647.603+273.647C647.603+266.859+653.008+261.353+659.66+261.353Z" opacity="1" fill="#ffffff"/>
<path d="M278.28+430.888C269.289+430.888+262+438.177+262+447.168L262+580.952C262+589.943+269.289+597.232+278.28+597.232L377.208+597.232C386.199+597.232+393.488+589.943+393.488+580.952L393.488+447.168C393.488+438.177+386.199+430.888+377.208+430.888L278.28+430.888ZM291.148+451.288L364.34+451.288C370.992+451.288+376.364+456.795+376.364+463.583L376.364+564.571C376.364+571.359+370.992+576.865+364.34+576.865L291.148+576.865C284.496+576.865+279.09+571.359+279.09+564.571L279.09+463.583C279.09+456.795+284.496+451.288+291.148+451.288Z" opacity="1" fill="#ffffff"/>
<path d="M278.28+430.888C269.289+430.888+262+438.177+262+447.168L262+580.952C262+589.943+269.289+597.232+278.28+597.232L377.208+597.232C386.199+597.232+393.488+589.943+393.488+580.952L393.488+447.168C393.488+438.177+386.199+430.888+377.208+430.888L278.28+430.888ZM291.148+451.288L364.34+451.288C370.992+451.288+376.364+456.795+376.364+463.583L376.364+564.571C376.364+571.359+370.992+576.865+364.34+576.865L291.148+576.865C284.496+576.865+279.09+571.359+279.09+564.571L279.09+463.583C279.09+456.795+284.496+451.288+291.148+451.288Z" opacity="1" fill="#ffffff"/>
<path d="M278.28+430.888C269.289+430.888+262+438.177+262+447.168L262+580.952C262+589.943+269.289+597.232+278.28+597.232L377.208+597.232C386.199+597.232+393.488+589.943+393.488+580.952L393.488+447.168C393.488+438.177+386.199+430.888+377.208+430.888L278.28+430.888ZM291.148+451.288L364.34+451.288C370.992+451.288+376.364+456.795+376.364+463.583L376.364+564.571C376.364+571.359+370.992+576.865+364.34+576.865L291.148+576.865C284.496+576.865+279.09+571.359+279.09+564.571L279.09+463.583C279.09+456.795+284.496+451.288+291.148+451.288Z" opacity="1" fill="#ffffff"/>
<path d="M278.28+430.888C269.289+430.888+262+438.177+262+447.168L262+580.952C262+589.943+269.289+597.232+278.28+597.232L377.208+597.232C386.199+597.232+393.488+589.943+393.488+580.952L393.488+447.168C393.488+438.177+386.199+430.888+377.208+430.888L278.28+430.888ZM291.148+451.288L364.34+451.288C370.992+451.288+376.364+456.795+376.364+463.583L376.364+564.571C376.364+571.359+370.992+576.865+364.34+576.865L291.148+576.865C284.496+576.865+279.09+571.359+279.09+564.571L279.09+463.583C279.09+456.795+284.496+451.288+291.148+451.288Z" opacity="1" fill="#ffffff"/>
<path d="M278.28+430.888C269.289+430.888+262+438.177+262+447.168L262+580.952C262+589.943+269.289+597.232+278.28+597.232L377.208+597.232C386.199+597.232+393.488+589.943+393.488+580.952L393.488+447.168C393.488+438.177+386.199+430.888+377.208+430.888L278.28+430.888ZM291.148+451.288L364.34+451.288C370.992+451.288+376.364+456.795+376.364+463.583L376.364+564.571C376.364+571.359+370.992+576.865+364.34+576.865L291.148+576.865C284.496+576.865+279.09+571.359+279.09+564.571L279.09+463.583C279.09+456.795+284.496+451.288+291.148+451.288Z" opacity="1" fill="#ffffff"/>
<path d="M278.28+430.888C269.289+430.888+262+438.177+262+447.168L262+580.952C262+589.943+269.289+597.232+278.28+597.232L377.208+597.232C386.199+597.232+393.488+589.943+393.488+580.952L393.488+447.168C393.488+438.177+386.199+430.888+377.208+430.888L278.28+430.888ZM291.148+451.288L364.34+451.288C370.992+451.288+376.364+456.795+376.364+463.583L376.364+564.571C376.364+571.359+370.992+576.865+364.34+576.865L291.148+576.865C284.496+576.865+279.09+571.359+279.09+564.571L279.09+463.583C279.09+456.795+284.496+451.288+291.148+451.288Z" opacity="1" fill="#ffffff"/>
<path d="M278.28+430.888C269.289+430.888+262+438.177+262+447.168L262+580.952C262+589.943+269.289+597.232+278.28+597.232L377.208+597.232C386.199+597.232+393.488+589.943+393.488+580.952L393.488+447.168C393.488+438.177+386.199+430.888+377.208+430.888L278.28+430.888ZM291.148+451.288L364.34+451.288C370.992+451.288+376.364+456.795+376.364+463.583L376.364+564.571C376.364+571.359+370.992+576.865+364.34+576.865L291.148+576.865C284.496+576.865+279.09+571.359+279.09+564.571L279.09+463.583C279.09+456.795+284.496+451.288+291.148+451.288Z" opacity="1" fill="#ffffff"/>
<path d="M278.28+430.888C269.289+430.888+262+438.177+262+447.168L262+580.952C262+589.943+269.289+597.232+278.28+597.232L377.208+597.232C386.199+597.232+393.488+589.943+393.488+580.952L393.488+447.168C393.488+438.177+386.199+430.888+377.208+430.888L278.28+430.888ZM291.148+451.288L364.34+451.288C370.992+451.288+376.364+456.795+376.364+463.583L376.364+564.571C376.364+571.359+370.992+576.865+364.34+576.865L291.148+576.865C284.496+576.865+279.09+571.359+279.09+564.571L279.09+463.583C279.09+456.795+284.496+451.288+291.148+451.288Z" opacity="1" fill="#ffffff"/>
<path stroke="#000000" stroke-opacity="0" stroke-width="1" d="M379.184+649.334C367.283+649.334+356.263+652.188+346.827+656.934C351.037+660.426+354.663+664.972+357.601+670.376C364.97+667.845+373.044+666.425+381.548+666.425C390.097+666.425+398.256+667.821+405.664+670.376C408.081+671.21+410.271+672.348+412.52+673.416C418.214+670.712+424.334+668.55+430.995+667.438C435.026+666.765+439.218+666.425+443.492+666.425C455.782+666.425+467.164+669.426+476.795+674.463C483.082+671.171+490.066+668.701+497.634+667.438C501.665+666.765+505.857+666.425+510.131+666.425C519.42+666.425+528.129+668.197+536.037+671.187C536.669+670.948+537.217+670.598+537.861+670.376C541.564+669.098+545.449+668.111+549.479+667.438C553.51+666.765+557.668+666.425+561.943+666.425C575.413+666.425+587.785+670.025+597.947+675.983C598.437+675.696+598.832+675.313+599.332+675.037C605.92+671.407+613.427+668.783+621.489+667.438C625.519+666.765+629.677+666.425+633.952+666.425C641.729+666.425+649.12+667.667+655.973+669.802C658.643+665.034+661.81+660.897+665.498+657.643C655.75+652.42+644.123+649.334+631.587+649.334C627.313+649.334+623.155+649.675+619.124+650.347C611.063+651.693+603.555+654.317+596.968+657.947C596.468+658.222+596.072+658.606+595.583+658.893C585.421+652.934+573.049+649.334+559.578+649.334C555.304+649.334+551.146+649.675+547.115+650.347C543.085+651.02+539.2+652.008+535.496+653.286C534.853+653.508+534.304+653.857+533.672+654.096C525.765+651.107+517.056+649.334+507.767+649.334C503.492+649.334+499.3+649.675+495.27+650.347C487.702+651.611+480.718+654.081+474.43+657.373C464.799+652.336+453.418+649.334+441.128+649.334C436.853+649.334+432.662+649.675+428.631+650.347C421.97+651.459+415.85+653.622+410.156+656.326C407.907+655.258+405.717+654.12+403.299+653.286C395.892+650.73+387.733+649.334+379.184+649.334Z" fill="#ffffff" stroke-linecap="round" opacity="1" stroke-linejoin="round"/>
<path stroke="#000000" stroke-opacity="0" stroke-width="1" d="M379.184+714.999C367.283+714.999+356.263+717.853+346.827+722.599C351.037+726.091+354.663+730.637+357.601+736.041C364.97+733.51+373.044+732.09+381.548+732.09C390.097+732.09+398.256+733.486+405.664+736.041C408.081+736.875+410.271+738.013+412.52+739.081C418.214+736.377+424.334+734.215+430.995+733.103C435.026+732.43+439.218+732.09+443.492+732.09C455.782+732.09+467.164+735.091+476.795+740.128C483.082+736.837+490.066+734.366+497.634+733.103C501.665+732.43+505.857+732.09+510.131+732.09C519.42+732.09+528.129+733.862+536.037+736.852C536.669+736.613+537.217+736.263+537.861+736.041C541.564+734.764+545.449+733.776+549.479+733.103C553.51+732.43+557.668+732.09+561.943+732.09C575.413+732.09+587.785+735.69+597.947+741.648C598.437+741.361+598.832+740.978+599.332+740.702C605.92+737.072+613.427+734.448+621.489+733.103C625.519+732.43+629.677+732.09+633.952+732.09C641.729+732.09+649.12+733.332+655.973+735.467C658.643+730.699+661.81+726.562+665.498+723.308C655.75+718.085+644.123+714.999+631.587+714.999C627.313+714.999+623.155+715.34+619.124+716.012C611.063+717.358+603.555+719.982+596.968+723.612C596.468+723.888+596.072+724.271+595.583+724.558C585.421+718.6+573.049+714.999+559.578+714.999C555.304+714.999+551.146+715.34+547.115+716.012C543.085+716.685+539.2+717.673+535.496+718.951C534.853+719.173+534.304+719.522+533.672+719.762C525.765+716.772+517.056+714.999+507.767+714.999C503.492+714.999+499.3+715.34+495.27+716.012C487.702+717.276+480.718+719.746+474.43+723.038C464.799+718.001+453.418+714.999+441.128+714.999C436.853+714.999+432.662+715.34+428.631+716.012C421.97+717.124+415.85+719.287+410.156+721.991C407.907+720.923+405.717+719.785+403.299+718.951C395.892+716.395+387.733+714.999+379.184+714.999Z" fill="#ffffff" stroke-linecap="round" opacity="1" stroke-linejoin="round"/>
</g>
</g>
</svg>
